<svg width="98" height="14" viewBox="0 0 98 14" fill="none" xmlns="http://www.w3.org/2000/svg">
<path d="M3.684 4.624C4.548 4.624 5.244 5.176 5.268 6.052H2.112C2.244 5.14 2.88 4.624 3.684 4.624ZM6.84 7.912H5.028C4.812 8.356 4.416 8.716 3.696 8.716C2.856 8.716 2.184 8.164 2.1 7.18H6.96C6.996 6.964 7.008 6.748 7.008 6.532C7.008 4.552 5.652 3.244 3.732 3.244C1.764 3.244 0.396 4.576 0.396 6.676C0.396 8.764 1.8 10.108 3.732 10.108C5.376 10.108 6.48 9.136 6.84 7.912ZM9.91425 6.688C9.91425 5.404 10.5143 5.02 11.5103 5.02H11.9543V3.256C11.0303 3.256 10.3343 3.7 9.91425 4.384V3.352H8.23425V10H9.91425V6.688ZM14.2978 10H16.1218L17.3338 5.356L18.5458 10H20.3578L22.3018 3.352H20.6938L19.5178 8.404L18.2698 3.352H16.4938L15.2218 8.416L14.0458 3.352H12.3418L14.2978 10ZM23.2108 10H24.8908V3.352H23.2108V10ZM24.0628 2.56C24.6508 2.56 25.0948 2.128 25.0948 1.576C25.0948 1.024 24.6508 0.592 24.0628 0.592C23.4628 0.592 23.0308 1.024 23.0308 1.576C23.0308 2.128 23.4628 2.56 24.0628 2.56ZM31.2067 10H32.8867V6.1C32.8867 4.264 31.7827 3.256 30.2347 3.256C29.3827 3.256 28.6627 3.616 28.2307 4.18V3.352H26.5507V10H28.2307V6.328C28.2307 5.26 28.8187 4.684 29.7307 4.684C30.6187 4.684 31.2067 5.26 31.2067 6.328V10ZM34.0522 6.652C34.0522 8.728 35.3963 10.108 37.0883 10.108C38.1323 10.108 38.8763 9.628 39.2723 9.016V10H40.9763V1.12H39.2723V4.276C38.8163 3.652 37.9763 3.244 37.1003 3.244C35.3963 3.244 34.0522 4.576 34.0522 6.652ZM39.2843 6.676C39.2843 7.936 38.4443 8.632 37.5203 8.632C36.6203 8.632 35.7683 7.912 35.7683 6.652C35.7683 5.392 36.6203 4.72 37.5203 4.72C38.4443 4.72 39.2843 5.416 39.2843 6.676ZM49.0371 6.676C49.0371 4.576 47.5371 3.244 45.6171 3.244C43.6971 3.244 42.1971 4.576 42.1971 6.676C42.1971 8.764 43.6491 10.108 45.5691 10.108C47.5011 10.108 49.0371 8.764 49.0371 6.676ZM43.9011 6.676C43.9011 5.344 44.7051 4.708 45.5931 4.708C46.4811 4.708 47.3091 5.344 47.3091 6.676C47.3091 7.996 46.4571 8.644 45.5691 8.644C44.6691 8.644 43.9011 7.996 43.9011 6.676ZM55.0934 8.212C55.0454 5.86 51.2294 6.712 51.2294 5.152C51.2294 4.624 51.7094 4.24 52.5134 4.24C53.3894 4.24 53.8934 4.72 53.9414 5.38H55.0334C54.9614 4.096 54.0014 3.316 52.5494 3.316C51.0854 3.316 50.1374 4.144 50.1374 5.152C50.1374 7.6 54.0254 6.748 54.0254 8.212C54.0254 8.752 53.5454 9.184 52.6814 9.184C51.7574 9.184 51.1934 8.704 51.1334 8.068H50.0054C50.0774 9.268 51.1574 10.108 52.6934 10.108C54.1454 10.108 55.0934 9.292 55.0934 8.212ZM56.6349 10H57.7269V3.424H56.6349V10ZM57.1989 2.356C57.5949 2.356 57.9189 2.032 57.9189 1.612C57.9189 1.192 57.5949 0.868 57.1989 0.868C56.7789 0.868 56.4549 1.192 56.4549 1.612C56.4549 2.032 56.7789 2.356 57.1989 2.356ZM59.1801 6.688C59.1801 8.728 60.5361 10.108 62.2881 10.108C63.5001 10.108 64.3521 9.484 64.7481 8.776V10H65.8521V3.424H64.7481V4.624C64.3641 3.94 63.5241 3.316 62.3001 3.316C60.5361 3.316 59.1801 4.636 59.1801 6.688ZM64.7481 6.7C64.7481 8.248 63.7161 9.148 62.5161 9.148C61.3161 9.148 60.2961 8.236 60.2961 6.688C60.2961 5.14 61.3161 4.264 62.5161 4.264C63.7161 4.264 64.7481 5.176 64.7481 6.7ZM72.5094 10H73.5894V6.124C73.5894 4.24 72.4254 3.304 70.9014 3.304C70.0134 3.304 69.2214 3.676 68.7894 4.36V3.424H67.6974V10H68.7894V6.364C68.7894 4.948 69.5574 4.252 70.6734 4.252C71.7774 4.252 72.5094 4.936 72.5094 6.28V10ZM75.3732 10H76.4652V3.424H75.3732V10ZM75.9372 2.356C76.3332 2.356 76.6572 2.032 76.6572 1.612C76.6572 1.192 76.3332 0.868 75.9372 0.868C75.5172 0.868 75.1932 1.192 75.1932 1.612C75.1932 2.032 75.5172 2.356 75.9372 2.356ZM79.4183 4.636V3.424H78.3263V13.12H79.4183V8.788C79.8263 9.46 80.6783 10.108 81.8783 10.108C83.6423 10.108 84.9983 8.728 84.9983 6.688C84.9983 4.636 83.6423 3.316 81.8783 3.316C80.6783 3.316 79.8143 3.94 79.4183 4.636ZM83.8823 6.688C83.8823 8.236 82.8623 9.148 81.6503 9.148C80.4623 9.148 79.4183 8.248 79.4183 6.7C79.4183 5.176 80.4623 4.264 81.6503 4.264C82.8623 4.264 83.8823 5.14 83.8823 6.688ZM86.0277 6.688C86.0277 8.728 87.3837 10.108 89.1357 10.108C90.3477 10.108 91.1997 9.484 91.5957 8.776V10H92.6997V3.424H91.5957V4.624C91.2117 3.94 90.3717 3.316 89.1477 3.316C87.3837 3.316 86.0277 4.636 86.0277 6.688ZM91.5957 6.7C91.5957 8.248 90.5637 9.148 89.3637 9.148C88.1637 9.148 87.1437 8.236 87.1437 6.688C87.1437 5.14 88.1637 4.264 89.3637 4.264C90.5637 4.264 91.5957 5.176 91.5957 6.7ZM95.6371 6.424C95.6371 4.9 96.4291 4.432 97.4731 4.432H97.7611V3.304C96.7171 3.304 96.0091 3.76 95.6371 4.492V3.424H94.5451V10H95.6371V6.424Z" fill="#535353"/>
</svg>
